<?xml version="1.0" encoding="UTF-8" standalone="no"?>
<!DOCTYPE svg PUBLIC "-//W3C//DTD SVG 1.1//EN"
 "http://www.w3.org/Graphics/SVG/1.1/DTD/svg11.dtd">
<!-- Generated by graphviz version 2.47.0 (20210316.0004)
 -->
<!-- Title: dependencies Pages: 1 -->
<svg width="1297pt" height="363pt"
 viewBox="0.00 0.00 1297.00 363.00" xmlns="http://www.w3.org/2000/svg" xmlns:xlink="http://www.w3.org/1999/xlink">
<g id="graph0" class="graph" transform="scale(1 1) rotate(0) translate(4 359)">
<title>dependencies</title>
<polygon fill="white" stroke="transparent" points="-4,4 -4,-359 1293,-359 1293,4 -4,4"/>
<text text-anchor="start" x="623.51" y="-42.4" font-family="Times-12" font-weight="bold" font-size="14.00">Legend</text>
<polygon fill="#ffffb3" stroke="transparent" points="410.5,-10 410.5,-30 430.5,-30 430.5,-10 410.5,-10"/>
<text text-anchor="start" x="434.13" y="-15.4" font-family="Times-12" font-size="14.00"> &#160;Declarations</text>
<polygon fill="#8dd3c7" stroke="transparent" points="523.5,-10 523.5,-30 543.5,-30 543.5,-10 523.5,-10"/>
<text text-anchor="start" x="547.23" y="-15.4" font-family="Times-12" font-size="14.00"> &#160;Module</text>
<polygon fill="#80b1d3" stroke="transparent" points="609.5,-10 609.5,-30 629.5,-30 629.5,-10 609.5,-10"/>
<text text-anchor="start" x="633.28" y="-15.4" font-family="Times-12" font-size="14.00"> &#160;Bootstrap</text>
<polygon fill="#fdb462" stroke="transparent" points="706.5,-10 706.5,-30 726.5,-30 726.5,-10 706.5,-10"/>
<text text-anchor="start" x="730.17" y="-15.4" font-family="Times-12" font-size="14.00"> &#160;Providers</text>
<polygon fill="#fb8072" stroke="transparent" points="802.5,-10 802.5,-30 822.5,-30 822.5,-10 802.5,-10"/>
<text text-anchor="start" x="826.23" y="-15.4" font-family="Times-12" font-size="14.00"> &#160;Exports</text>
<g id="clust1" class="cluster">
<title>cluster_AppModule</title>
<polygon fill="none" stroke="black" stroke-dasharray="1,5" points="412,-146 412,-347 1013,-347 1013,-146 412,-146"/>
</g>
<g id="clust3" class="cluster">
<title>cluster_AppModule_imports</title>
<polygon fill="none" stroke="black" points="558,-154 558,-282 1005,-282 1005,-154 558,-154"/>
</g>
<g id="clust6" class="cluster">
<title>cluster_AppModule_providers</title>
<polygon fill="none" stroke="black" points="420,-230 420,-282 550,-282 550,-230 420,-230"/>
</g>
<g id="clust7" class="cluster">
<title>cluster_AuthModule</title>
<polygon fill="none" stroke="black" stroke-dasharray="1,5" points="8,-146 8,-214 404,-214 404,-146 8,-146"/>
</g>
<g id="clust10" class="cluster">
<title>cluster_AuthModule_exports</title>
<polygon fill="none" stroke="black" points="290,-154 290,-206 396,-206 396,-154 290,-154"/>
</g>
<g id="clust12" class="cluster">
<title>cluster_AuthModule_providers</title>
<polygon fill="none" stroke="black" points="16,-154 16,-206 282,-206 282,-154 16,-154"/>
</g>
<g id="clust19" class="cluster">
<title>cluster_ProjectModule</title>
<polygon fill="none" stroke="black" stroke-dasharray="1,5" points="618,-70 618,-138 784,-138 784,-70 618,-70"/>
</g>
<g id="clust24" class="cluster">
<title>cluster_ProjectModule_providers</title>
<polygon fill="none" stroke="black" points="626,-78 626,-130 776,-130 776,-78 626,-78"/>
</g>
<g id="clust25" class="cluster">
<title>cluster_TicketModule</title>
<polygon fill="none" stroke="black" stroke-dasharray="1,5" points="792,-70 792,-138 954,-138 954,-70 792,-70"/>
</g>
<g id="clust30" class="cluster">
<title>cluster_TicketModule_providers</title>
<polygon fill="none" stroke="black" points="800,-78 800,-130 946,-130 946,-78 800,-78"/>
</g>
<g id="clust31" class="cluster">
<title>cluster_UserModule</title>
<polygon fill="none" stroke="black" stroke-dasharray="1,5" points="1021,-222 1021,-290 1281,-290 1281,-222 1021,-222"/>
</g>
<g id="clust34" class="cluster">
<title>cluster_UserModule_exports</title>
<polygon fill="none" stroke="black" points="1169,-230 1169,-282 1273,-282 1273,-230 1169,-230"/>
</g>
<g id="clust36" class="cluster">
<title>cluster_UserModule_providers</title>
<polygon fill="none" stroke="black" points="1029,-230 1029,-282 1161,-282 1161,-230 1029,-230"/>
</g>
<!-- AuthModule -->
<g id="node1" class="node">
<title>AuthModule</title>
<polygon fill="#8dd3c7" stroke="black" points="653.55,-274 650.55,-278 629.55,-278 626.55,-274 566.45,-274 566.45,-238 653.55,-238 653.55,-274"/>
<text text-anchor="middle" x="610" y="-251.8" font-family="Times,serif" font-size="14.00">AuthModule</text>
</g>
<!-- AppModule -->
<g id="node6" class="node">
<title>AppModule</title>
<polygon fill="#8dd3c7" stroke="black" points="746.66,-339 743.66,-343 722.66,-343 719.66,-339 663.34,-339 663.34,-303 746.66,-303 746.66,-339"/>
<text text-anchor="middle" x="705" y="-316.8" font-family="Times,serif" font-size="14.00">AppModule</text>
</g>
<!-- AuthModule&#45;&gt;AppModule -->
<g id="edge1" class="edge">
<title>AuthModule&#45;&gt;AppModule</title>
<path fill="none" stroke="black" d="M653.58,-265C663.81,-265 671.79,-265 671.79,-265 671.79,-265 671.79,-292.97 671.79,-292.97"/>
<polygon fill="black" stroke="black" points="668.29,-292.97 671.79,-302.97 675.29,-292.97 668.29,-292.97"/>
</g>
<!-- AuthService  -->
<g id="node8" class="node">
<title>AuthService </title>
<polygon fill="#fb8072" stroke="black" points="387.98,-198 298.02,-198 298.02,-162 387.98,-162 387.98,-198"/>
<text text-anchor="middle" x="343" y="-175.8" font-family="Times,serif" font-size="14.00">AuthService </text>
</g>
<!-- AuthModule&#45;&gt;AuthService  -->
<g id="edge8" class="edge">
<title>AuthModule&#45;&gt;AuthService </title>
<path fill="none" stroke="black" stroke-dasharray="5,2" d="M566.39,-256C558.96,-256 553.59,-256 553.59,-256 553.59,-256 553.59,-180 553.59,-180 553.59,-180 397.92,-180 397.92,-180"/>
<polygon fill="black" stroke="black" points="397.92,-176.5 387.92,-180 397.92,-183.5 397.92,-176.5"/>
</g>
<!-- HealthModule -->
<g id="node2" class="node">
<title>HealthModule</title>
<polygon fill="#8dd3c7" stroke="black" points="662.37,-198 659.37,-202 638.37,-202 635.37,-198 565.63,-198 565.63,-162 662.37,-162 662.37,-198"/>
<text text-anchor="middle" x="614" y="-175.8" font-family="Times,serif" font-size="14.00">HealthModule</text>
</g>
<!-- HealthModule&#45;&gt;AppModule -->
<g id="edge2" class="edge">
<title>HealthModule&#45;&gt;AppModule</title>
<path fill="none" stroke="black" d="M658.1,-198.21C658.1,-235.06 658.1,-315 658.1,-315 658.1,-315 658.61,-315 658.61,-315"/>
<polygon fill="black" stroke="black" points="653.12,-318.5 663.12,-315 653.12,-311.5 653.12,-318.5"/>
</g>
<!-- ProjectModule -->
<g id="node3" class="node">
<title>ProjectModule</title>
<polygon fill="#8dd3c7" stroke="black" points="779.7,-198 776.7,-202 755.7,-202 752.7,-198 680.3,-198 680.3,-162 779.7,-162 779.7,-198"/>
<text text-anchor="middle" x="730" y="-175.8" font-family="Times,serif" font-size="14.00">ProjectModule</text>
</g>
<!-- ProjectModule&#45;&gt;AppModule -->
<g id="edge3" class="edge">
<title>ProjectModule&#45;&gt;AppModule</title>
<path fill="none" stroke="black" d="M713.61,-198.14C713.61,-198.14 713.61,-292.93 713.61,-292.93"/>
<polygon fill="black" stroke="black" points="710.11,-292.92 713.61,-302.93 717.11,-292.93 710.11,-292.92"/>
</g>
<!-- TicketModule -->
<g id="node4" class="node">
<title>TicketModule</title>
<polygon fill="#8dd3c7" stroke="black" points="892.81,-198 889.81,-202 868.81,-202 865.81,-198 797.19,-198 797.19,-162 892.81,-162 892.81,-198"/>
<text text-anchor="middle" x="845" y="-175.8" font-family="Times,serif" font-size="14.00">TicketModule</text>
</g>
<!-- TicketModule&#45;&gt;AppModule -->
<g id="edge4" class="edge">
<title>TicketModule&#45;&gt;AppModule</title>
<path fill="none" stroke="black" d="M845,-198.21C845,-235.06 845,-315 845,-315 845,-315 757,-315 757,-315"/>
<polygon fill="black" stroke="black" points="757,-311.5 747,-315 757,-318.5 757,-311.5"/>
</g>
<!-- UserModule -->
<g id="node5" class="node">
<title>UserModule</title>
<polygon fill="#8dd3c7" stroke="black" points="996.98,-198 993.98,-202 972.98,-202 969.98,-198 911.02,-198 911.02,-162 996.98,-162 996.98,-198"/>
<text text-anchor="middle" x="954" y="-175.8" font-family="Times,serif" font-size="14.00">UserModule</text>
</g>
<!-- UserModule&#45;&gt;AuthModule -->
<g id="edge7" class="edge">
<title>UserModule&#45;&gt;AuthModule</title>
<path fill="none" stroke="black" d="M932.51,-198.31C932.51,-218.15 932.51,-247 932.51,-247 932.51,-247 663.83,-247 663.83,-247"/>
<polygon fill="black" stroke="black" points="663.83,-243.5 653.83,-247 663.83,-250.5 663.83,-243.5"/>
</g>
<!-- UserModule&#45;&gt;AppModule -->
<g id="edge5" class="edge">
<title>UserModule&#45;&gt;AppModule</title>
<path fill="none" stroke="black" d="M954,-198.03C954,-237.28 954,-327 954,-327 954,-327 756.68,-327 756.68,-327"/>
<polygon fill="black" stroke="black" points="756.68,-323.5 746.68,-327 756.68,-330.5 756.68,-323.5"/>
</g>
<!-- UserService  -->
<g id="node13" class="node">
<title>UserService </title>
<polygon fill="#fb8072" stroke="black" points="1264.9,-274 1177.1,-274 1177.1,-238 1264.9,-238 1264.9,-274"/>
<text text-anchor="middle" x="1221" y="-251.8" font-family="Times,serif" font-size="14.00">UserService </text>
</g>
<!-- UserModule&#45;&gt;UserService  -->
<g id="edge13" class="edge">
<title>UserModule&#45;&gt;UserService </title>
<path fill="none" stroke="black" stroke-dasharray="5,2" d="M997.19,-180C1072.76,-180 1221,-180 1221,-180 1221,-180 1221,-227.99 1221,-227.99"/>
<polygon fill="black" stroke="black" points="1217.5,-227.99 1221,-237.99 1224.5,-227.99 1217.5,-227.99"/>
</g>
<!-- AppService -->
<g id="node7" class="node">
<title>AppService</title>
<ellipse fill="#fdb462" stroke="black" cx="485" cy="-256" rx="56.74" ry="18"/>
<text text-anchor="middle" x="485" y="-251.8" font-family="Times,serif" font-size="14.00">AppService</text>
</g>
<!-- AppService&#45;&gt;AppModule -->
<g id="edge6" class="edge">
<title>AppService&#45;&gt;AppModule</title>
<path fill="none" stroke="black" d="M485,-274.28C485,-295.32 485,-327 485,-327 485,-327 653.1,-327 653.1,-327"/>
<polygon fill="black" stroke="black" points="653.1,-330.5 663.1,-327 653.1,-323.5 653.1,-330.5"/>
</g>
<!-- AuthService -->
<g id="node9" class="node">
<title>AuthService</title>
<ellipse fill="#fdb462" stroke="black" cx="215" cy="-180" rx="59.11" ry="18"/>
<text text-anchor="middle" x="215" y="-175.8" font-family="Times,serif" font-size="14.00">AuthService</text>
</g>
<!-- AuthService&#45;&gt;AuthModule -->
<g id="edge9" class="edge">
<title>AuthService&#45;&gt;AuthModule</title>
<path fill="none" stroke="black" d="M215,-198.24C215,-205.43 215,-212 215,-212 215,-212 624.59,-212 624.59,-212 624.59,-212 624.59,-227.85 624.59,-227.85"/>
<polygon fill="black" stroke="black" points="621.09,-227.85 624.59,-237.85 628.09,-227.85 621.09,-227.85"/>
</g>
<!-- JwtStrategy -->
<g id="node10" class="node">
<title>JwtStrategy</title>
<ellipse fill="#fdb462" stroke="black" cx="81" cy="-180" rx="56.76" ry="18"/>
<text text-anchor="middle" x="81" y="-175.8" font-family="Times,serif" font-size="14.00">JwtStrategy</text>
</g>
<!-- JwtStrategy&#45;&gt;AuthModule -->
<g id="edge10" class="edge">
<title>JwtStrategy&#45;&gt;AuthModule</title>
<path fill="none" stroke="black" d="M81,-198.04C81,-210.56 81,-225 81,-225 81,-225 595.41,-225 595.41,-225 595.41,-225 595.41,-227.97 595.41,-227.97"/>
<polygon fill="black" stroke="black" points="591.91,-227.97 595.41,-237.97 598.91,-227.97 591.91,-227.97"/>
</g>
<!-- ProjectService -->
<g id="node11" class="node">
<title>ProjectService</title>
<ellipse fill="#fdb462" stroke="black" cx="701" cy="-104" rx="67.19" ry="18"/>
<text text-anchor="middle" x="701" y="-99.8" font-family="Times,serif" font-size="14.00">ProjectService</text>
</g>
<!-- ProjectService&#45;&gt;ProjectModule -->
<g id="edge11" class="edge">
<title>ProjectService&#45;&gt;ProjectModule</title>
<path fill="none" stroke="black" d="M724.37,-121.25C724.37,-121.25 724.37,-151.76 724.37,-151.76"/>
<polygon fill="black" stroke="black" points="720.87,-151.76 724.37,-161.76 727.87,-151.76 720.87,-151.76"/>
</g>
<!-- TicketService -->
<g id="node12" class="node">
<title>TicketService</title>
<ellipse fill="#fdb462" stroke="black" cx="873" cy="-104" rx="64.82" ry="18"/>
<text text-anchor="middle" x="873" y="-99.8" font-family="Times,serif" font-size="14.00">TicketService</text>
</g>
<!-- TicketService&#45;&gt;TicketModule -->
<g id="edge12" class="edge">
<title>TicketService&#45;&gt;TicketModule</title>
<path fill="none" stroke="black" d="M850.5,-121.25C850.5,-121.25 850.5,-151.76 850.5,-151.76"/>
<polygon fill="black" stroke="black" points="847,-151.76 850.5,-161.76 854,-151.76 847,-151.76"/>
</g>
<!-- UserService -->
<g id="node14" class="node">
<title>UserService</title>
<ellipse fill="#fdb462" stroke="black" cx="1095" cy="-256" rx="58.44" ry="18"/>
<text text-anchor="middle" x="1095" y="-251.8" font-family="Times,serif" font-size="14.00">UserService</text>
</g>
<!-- UserService&#45;&gt;UserModule -->
<g id="edge14" class="edge">
<title>UserService&#45;&gt;UserModule</title>
<path fill="none" stroke="black" d="M1036.65,-256C1006.31,-256 975.49,-256 975.49,-256 975.49,-256 975.49,-208.01 975.49,-208.01"/>
<polygon fill="black" stroke="black" points="978.99,-208.01 975.49,-198.01 971.99,-208.01 978.99,-208.01"/>
</g>
</g>
</svg>
