<?xml version="1.0" encoding="UTF-8" standalone="no"?>
<!DOCTYPE svg PUBLIC "-//W3C//DTD SVG 1.1//EN"
 "http://www.w3.org/Graphics/SVG/1.1/DTD/svg11.dtd">
<!-- Generated by graphviz version 2.47.0 (20210316.0004)
 -->
<!-- Title: dependencies Pages: 1 -->
<svg width="731pt" height="211pt"
 viewBox="0.00 0.00 731.00 211.00" xmlns="http://www.w3.org/2000/svg" xmlns:xlink="http://www.w3.org/1999/xlink">
<g id="graph0" class="graph" transform="scale(1 1) rotate(0) translate(4 207)">
<title>dependencies</title>
<polygon fill="white" stroke="transparent" points="-4,4 -4,-207 727,-207 727,4 -4,4"/>
<text text-anchor="start" x="340.51" y="-42.4" font-family="Times-12" font-weight="bold" font-size="14.00">Legend</text>
<polygon fill="#ffffb3" stroke="transparent" points="127.5,-10 127.5,-30 147.5,-30 147.5,-10 127.5,-10"/>
<text text-anchor="start" x="151.13" y="-15.4" font-family="Times-12" font-size="14.00"> &#160;Declarations</text>
<polygon fill="#8dd3c7" stroke="transparent" points="240.5,-10 240.5,-30 260.5,-30 260.5,-10 240.5,-10"/>
<text text-anchor="start" x="264.23" y="-15.4" font-family="Times-12" font-size="14.00"> &#160;Module</text>
<polygon fill="#80b1d3" stroke="transparent" points="326.5,-10 326.5,-30 346.5,-30 346.5,-10 326.5,-10"/>
<text text-anchor="start" x="350.28" y="-15.4" font-family="Times-12" font-size="14.00"> &#160;Bootstrap</text>
<polygon fill="#fdb462" stroke="transparent" points="423.5,-10 423.5,-30 443.5,-30 443.5,-10 423.5,-10"/>
<text text-anchor="start" x="447.17" y="-15.4" font-family="Times-12" font-size="14.00"> &#160;Providers</text>
<polygon fill="#fb8072" stroke="transparent" points="519.5,-10 519.5,-30 539.5,-30 539.5,-10 519.5,-10"/>
<text text-anchor="start" x="543.23" y="-15.4" font-family="Times-12" font-size="14.00"> &#160;Exports</text>
<g id="clust1" class="cluster">
<title>cluster_AppModule</title>
<polygon fill="none" stroke="black" stroke-dasharray="1,5" points="8,-70 8,-195 715,-195 715,-70 8,-70"/>
</g>
<g id="clust6" class="cluster">
<title>cluster_AppModule_providers</title>
<polygon fill="none" stroke="black" points="577,-78 577,-130 707,-130 707,-78 577,-78"/>
</g>
<g id="clust3" class="cluster">
<title>cluster_AppModule_imports</title>
<polygon fill="none" stroke="black" points="16,-78 16,-130 569,-130 569,-78 16,-78"/>
</g>
<!-- AuthModule -->
<g id="node1" class="node">
<title>AuthModule</title>
<polygon fill="#8dd3c7" stroke="black" points="560.55,-122 557.55,-126 536.55,-126 533.55,-122 473.45,-122 473.45,-86 560.55,-86 560.55,-122"/>
<text text-anchor="middle" x="517" y="-99.8" font-family="Times,serif" font-size="14.00">AuthModule</text>
</g>
<!-- AppModule -->
<g id="node6" class="node">
<title>AppModule</title>
<polygon fill="#8dd3c7" stroke="black" points="390.66,-187 387.66,-191 366.66,-191 363.66,-187 307.34,-187 307.34,-151 390.66,-151 390.66,-187"/>
<text text-anchor="middle" x="349" y="-164.8" font-family="Times,serif" font-size="14.00">AppModule</text>
</g>
<!-- AuthModule&#45;&gt;AppModule -->
<g id="edge1" class="edge">
<title>AuthModule&#45;&gt;AppModule</title>
<path fill="none" stroke="black" d="M517,-122.02C517,-139.37 517,-163 517,-163 517,-163 400.96,-163 400.96,-163"/>
<polygon fill="black" stroke="black" points="400.96,-159.5 390.96,-163 400.96,-166.5 400.96,-159.5"/>
</g>
<!-- HealthModule -->
<g id="node2" class="node">
<title>HealthModule</title>
<polygon fill="#8dd3c7" stroke="black" points="455.37,-122 452.37,-126 431.37,-126 428.37,-122 358.63,-122 358.63,-86 455.37,-86 455.37,-122"/>
<text text-anchor="middle" x="407" y="-99.8" font-family="Times,serif" font-size="14.00">HealthModule</text>
</g>
<!-- HealthModule&#45;&gt;AppModule -->
<g id="edge2" class="edge">
<title>HealthModule&#45;&gt;AppModule</title>
<path fill="none" stroke="black" d="M374.7,-122.11C374.7,-122.11 374.7,-140.99 374.7,-140.99"/>
<polygon fill="black" stroke="black" points="371.2,-140.99 374.7,-150.99 378.2,-140.99 371.2,-140.99"/>
</g>
<!-- ProjectModule -->
<g id="node3" class="node">
<title>ProjectModule</title>
<polygon fill="#8dd3c7" stroke="black" points="340.7,-122 337.7,-126 316.7,-126 313.7,-122 241.3,-122 241.3,-86 340.7,-86 340.7,-122"/>
<text text-anchor="middle" x="291" y="-99.8" font-family="Times,serif" font-size="14.00">ProjectModule</text>
</g>
<!-- ProjectModule&#45;&gt;AppModule -->
<g id="edge3" class="edge">
<title>ProjectModule&#45;&gt;AppModule</title>
<path fill="none" stroke="black" d="M323.89,-122.11C323.89,-122.11 323.89,-140.99 323.89,-140.99"/>
<polygon fill="black" stroke="black" points="320.39,-140.99 323.89,-150.99 327.39,-140.99 320.39,-140.99"/>
</g>
<!-- TicketModule -->
<g id="node4" class="node">
<title>TicketModule</title>
<polygon fill="#8dd3c7" stroke="black" points="223.81,-122 220.81,-126 199.81,-126 196.81,-122 128.19,-122 128.19,-86 223.81,-86 223.81,-122"/>
<text text-anchor="middle" x="176" y="-99.8" font-family="Times,serif" font-size="14.00">TicketModule</text>
</g>
<!-- TicketModule&#45;&gt;AppModule -->
<g id="edge4" class="edge">
<title>TicketModule&#45;&gt;AppModule</title>
<path fill="none" stroke="black" d="M176,-122.02C176,-139.37 176,-163 176,-163 176,-163 297.12,-163 297.12,-163"/>
<polygon fill="black" stroke="black" points="297.12,-166.5 307.12,-163 297.12,-159.5 297.12,-166.5"/>
</g>
<!-- UserModule -->
<g id="node5" class="node">
<title>UserModule</title>
<polygon fill="#8dd3c7" stroke="black" points="109.98,-122 106.98,-126 85.98,-126 82.98,-122 24.02,-122 24.02,-86 109.98,-86 109.98,-122"/>
<text text-anchor="middle" x="67" y="-99.8" font-family="Times,serif" font-size="14.00">UserModule</text>
</g>
<!-- UserModule&#45;&gt;AppModule -->
<g id="edge5" class="edge">
<title>UserModule&#45;&gt;AppModule</title>
<path fill="none" stroke="black" d="M67,-122.28C67,-143.32 67,-175 67,-175 67,-175 297.09,-175 297.09,-175"/>
<polygon fill="black" stroke="black" points="297.09,-178.5 307.09,-175 297.09,-171.5 297.09,-178.5"/>
</g>
<!-- AppService -->
<g id="node7" class="node">
<title>AppService</title>
<ellipse fill="#fdb462" stroke="black" cx="642" cy="-104" rx="56.74" ry="18"/>
<text text-anchor="middle" x="642" y="-99.8" font-family="Times,serif" font-size="14.00">AppService</text>
</g>
<!-- AppService&#45;&gt;AppModule -->
<g id="edge6" class="edge">
<title>AppService&#45;&gt;AppModule</title>
<path fill="none" stroke="black" d="M642,-122.28C642,-143.32 642,-175 642,-175 642,-175 400.67,-175 400.67,-175"/>
<polygon fill="black" stroke="black" points="400.67,-171.5 390.67,-175 400.67,-178.5 400.67,-171.5"/>
</g>
</g>
</svg>
